<svg width="216" height="28" viewBox="0 0 216 28" fill="none" xmlns="http://www.w3.org/2000/svg">
<g clip-path="url(#clip0_6620_1936)">
<path d="M47.5225 12.8774C46.6881 12.8774 45.9112 12.7418 45.1915 12.4707C44.4824 12.1891 43.8618 11.798 43.3299 11.2974C42.8085 10.7864 42.4017 10.1866 42.1097 9.49835C41.8177 8.81001 41.6716 8.05909 41.6716 7.24561C41.6716 6.43212 41.8177 5.68125 42.1097 4.99291C42.4017 4.30458 42.8137 3.71011 43.3455 3.20951C43.8775 2.69848 44.498 2.30738 45.2072 2.03622C45.9164 1.75463 46.6934 1.61384 47.5381 1.61384C48.4352 1.61384 49.2536 1.77027 49.9941 2.08315C50.7346 2.3856 51.3604 2.83927 51.8713 3.44417L50.5574 4.68003C50.1612 4.25243 49.7176 3.93434 49.2275 3.72576C48.7374 3.50674 48.2056 3.39723 47.632 3.39723C47.0584 3.39723 46.5317 3.4911 46.0519 3.67882C45.5826 3.86655 45.1707 4.13249 44.8161 4.47666C44.4719 4.82082 44.2007 5.22756 44.0026 5.6969C43.8149 6.16619 43.721 6.68246 43.721 7.24561C43.721 7.8088 43.8149 8.32503 44.0026 8.79436C44.2007 9.26366 44.4719 9.67042 44.8161 10.0146C45.1707 10.3588 45.5826 10.6247 46.0519 10.8124C46.5317 11.0001 47.0584 11.094 47.632 11.094C48.2056 11.094 48.7374 10.9897 49.2275 10.7811C49.7176 10.5621 50.1612 10.2336 50.5574 9.79557L51.8713 11.0471C51.3604 11.6415 50.7346 12.0952 49.9941 12.4081C49.2536 12.721 48.4298 12.8774 47.5225 12.8774ZM53.6322 12.721V1.11323H55.5879V12.721H53.6322ZM61.909 12.8305C61.0537 12.8305 60.2924 12.648 59.625 12.283C58.9576 11.9075 58.4307 11.3964 58.0447 10.7498C57.6592 10.1032 57.466 9.36798 57.466 8.54408C57.466 7.70972 57.6592 6.97444 58.0447 6.33826C58.4307 5.69167 58.9576 5.18586 59.625 4.82082C60.2924 4.4558 61.0537 4.27329 61.909 4.27329C62.7745 4.27329 63.5411 4.4558 64.2085 4.82082C64.8865 5.18586 65.413 5.68644 65.7888 6.32262C66.1743 6.9588 66.3675 7.6993 66.3675 8.54408C66.3675 9.36798 66.1743 10.1032 65.7888 10.7498C65.413 11.3964 64.8865 11.9075 64.2085 12.283C63.5411 12.648 62.7745 12.8305 61.909 12.8305ZM61.909 11.1566C62.3885 11.1566 62.8161 11.0523 63.1919 10.8437C63.5673 10.6351 63.8593 10.3327 64.0676 9.93636C64.2869 9.54005 64.3964 9.07594 64.3964 8.54408C64.3964 8.00175 64.2869 7.53764 64.0676 7.15175C63.8593 6.75544 63.5673 6.45299 63.1919 6.2444C62.8161 6.03581 62.3938 5.93154 61.9245 5.93154C61.445 5.93154 61.0174 6.03581 60.6416 6.2444C60.2769 6.45299 59.9849 6.75544 59.766 7.15175C59.5466 7.53764 59.4371 8.00175 59.4371 8.54408C59.4371 9.07594 59.5466 9.54005 59.766 9.93636C59.9849 10.3327 60.2769 10.6351 60.6416 10.8437C61.0174 11.0523 61.4397 11.1566 61.909 11.1566ZM71.7728 12.8305C71.0638 12.8305 70.4381 12.7001 69.8957 12.4394C69.3533 12.1682 68.9309 11.7615 68.6282 11.2191C68.326 10.6664 68.1749 9.97287 68.1749 9.13851V4.36715H70.1301V8.87258C70.1301 9.6235 70.2972 10.1866 70.6309 10.5621C70.9752 10.9271 71.46 11.1096 72.0857 11.1096C72.5448 11.1096 72.941 11.0158 73.2747 10.8281C73.619 10.6403 73.8849 10.3588 74.0723 9.98329C74.2709 9.60785 74.3697 9.14374 74.3697 8.59101V4.36715H76.3253V12.721H74.4636V10.4683L74.792 11.1566C74.5106 11.6989 74.0985 12.1161 73.5561 12.4081C73.0141 12.6897 72.4194 12.8305 71.7728 12.8305ZM82.4213 12.8305C81.6178 12.8305 80.8933 12.6532 80.2467 12.2986C79.6103 11.9336 79.1096 11.433 78.7449 10.7968C78.3797 10.1606 78.1971 9.40967 78.1971 8.54408C78.1971 7.67843 78.3797 6.92752 78.7449 6.29133C79.1096 5.65515 79.6103 5.15975 80.2467 4.80518C80.8933 4.45059 81.6178 4.27329 82.4213 4.27329C83.1196 4.27329 83.7453 4.42973 84.2984 4.7426C84.851 5.04507 85.2893 5.50913 85.6123 6.1349C85.9359 6.76067 86.0976 7.5637 86.0976 8.54408C86.0976 9.51399 85.9407 10.317 85.6278 10.9532C85.315 11.579 84.8825 12.0483 84.3294 12.3612C83.7768 12.674 83.1404 12.8305 82.4213 12.8305ZM82.6557 11.1566C83.1249 11.1566 83.5424 11.0523 83.9071 10.8437C84.2829 10.6351 84.5798 10.3327 84.7987 9.93636C85.0283 9.54005 85.143 9.07594 85.143 8.54408C85.143 8.00175 85.0283 7.53764 84.7987 7.15175C84.5798 6.75544 84.2829 6.45299 83.9071 6.2444C83.5424 6.03581 83.1249 5.93154 82.6557 5.93154C82.1864 5.93154 81.7641 6.03581 81.3887 6.2444C81.0236 6.45299 80.7262 6.75544 80.4971 7.15175C80.2777 7.53764 80.1683 8.00175 80.1683 8.54408C80.1683 9.07594 80.2777 9.54005 80.4971 9.93636C80.7262 10.3327 81.0236 10.6351 81.3887 10.8437C81.7641 11.0523 82.1864 11.1566 82.6557 11.1566ZM85.19 12.721V10.7498L85.2685 8.52843L85.1116 6.30698V1.11323H87.0517V12.721H85.19ZM88.2644 12.721L93.1922 1.77027H95.1948L100.138 12.721H98.0105L93.7709 2.8497H94.5846L90.3605 12.721H88.2644ZM90.5329 10.1866L91.0801 8.59101H96.9935L97.5413 10.1866H90.5329ZM101.531 12.721V1.77027H103.565V12.721H101.531ZM113.071 12.721V3.4911H109.442V1.77027H118.734V3.4911H115.105V12.721H113.071ZM123.144 12.8305C122.216 12.8305 121.402 12.648 120.704 12.283C120.015 11.9075 119.478 11.3964 119.092 10.7498C118.717 10.1032 118.529 9.36798 118.529 8.54408C118.529 7.70972 118.712 6.97444 119.076 6.33826C119.452 5.69167 119.963 5.18586 120.61 4.82082C121.267 4.4558 122.012 4.27329 122.847 4.27329C123.66 4.27329 124.385 4.45059 125.021 4.80518C125.658 5.15975 126.158 5.66038 126.523 6.30698C126.888 6.95362 127.071 7.71495 127.071 8.59101C127.071 8.6744 127.065 8.76831 127.055 8.87258C127.055 8.97685 127.049 9.07594 127.039 9.1698H120.078V7.87138H126.007L125.24 8.2781C125.251 7.79839 125.151 7.37598 124.943 7.01096C124.734 6.64594 124.448 6.35913 124.083 6.15054C123.728 5.94195 123.316 5.83768 122.847 5.83768C122.367 5.83768 121.944 5.94195 121.58 6.15054C121.225 6.35913 120.943 6.65117 120.735 7.0266C120.537 7.39162 120.438 7.82445 120.438 8.32503V8.63793C120.438 9.13851 120.553 9.58175 120.782 9.96764C121.011 10.3535 121.335 10.6508 121.752 10.8593C122.169 11.0679 122.649 11.1722 123.191 11.1722C123.66 11.1722 124.083 11.0992 124.458 10.9532C124.833 10.8072 125.167 10.5778 125.459 10.2649L126.508 11.4695C126.132 11.9075 125.658 12.2464 125.084 12.4863C124.52 12.7157 123.874 12.8305 123.144 12.8305ZM132.782 12.8305C131.906 12.8305 131.123 12.648 130.435 12.283C129.757 11.9075 129.225 11.3964 128.839 10.7498C128.453 10.1032 128.261 9.36798 128.261 8.54408C128.261 7.70972 128.453 6.97444 128.839 6.33826C129.225 5.69167 129.757 5.18586 130.435 4.82082C131.123 4.4558 131.906 4.27329 132.782 4.27329C133.595 4.27329 134.31 4.44016 134.925 4.77389C135.55 5.09718 136.025 5.57693 136.349 6.21312L134.847 7.08918C134.596 6.69287 134.289 6.40083 133.924 6.21312C133.569 6.0254 133.183 5.93154 132.766 5.93154C132.286 5.93154 131.853 6.03581 131.468 6.2444C131.082 6.45299 130.779 6.75544 130.56 7.15175C130.341 7.53764 130.232 8.00175 130.232 8.54408C130.232 9.0864 130.341 9.55569 130.56 9.952C130.779 10.3379 131.082 10.6351 131.468 10.8437C131.853 11.0523 132.286 11.1566 132.766 11.1566C133.183 11.1566 133.569 11.0627 133.924 10.875C134.289 10.6873 134.596 10.3952 134.847 9.99893L136.349 10.875C136.025 11.5008 135.55 11.9857 134.925 12.3299C134.31 12.6636 133.595 12.8305 132.782 12.8305ZM142.703 4.27329C143.37 4.27329 143.964 4.40366 144.486 4.66439C145.018 4.92511 145.435 5.32665 145.737 5.86897C146.04 6.40083 146.191 7.08918 146.191 7.93395V12.721H144.236V8.18424C144.236 7.44378 144.058 6.89105 143.704 6.52603C143.359 6.16096 142.875 5.97847 142.249 5.97847C141.79 5.97847 141.383 6.07233 141.028 6.26005C140.674 6.44776 140.398 6.72939 140.199 7.10482C140.012 7.46984 139.918 7.93395 139.918 8.49715V12.721H137.962V1.11323H139.918V6.61988L139.496 5.93154C139.788 5.39963 140.21 4.99291 140.763 4.71132C141.326 4.4193 141.972 4.27329 142.703 4.27329ZM153.412 4.27329C154.079 4.27329 154.674 4.40366 155.195 4.66439C155.727 4.92511 156.144 5.32665 156.447 5.86897C156.749 6.40083 156.901 7.08918 156.901 7.93395V12.721H154.945V8.18424C154.945 7.44378 154.768 6.89105 154.413 6.52603C154.069 6.16096 153.584 5.97847 152.958 5.97847C152.499 5.97847 152.092 6.07233 151.738 6.26005C151.383 6.44776 151.107 6.72939 150.909 7.10482C150.721 7.46984 150.627 7.93395 150.627 8.49715V12.721H148.672V4.36715H150.533V6.61988L150.205 5.93154C150.497 5.39963 150.919 4.99291 151.472 4.71132C152.035 4.4193 152.682 4.27329 153.412 4.27329ZM163.151 12.8305C162.296 12.8305 161.534 12.648 160.867 12.283C160.199 11.9075 159.673 11.3964 159.287 10.7498C158.901 10.1032 158.708 9.36798 158.708 8.54408C158.708 7.70972 158.901 6.97444 159.287 6.33826C159.673 5.69167 160.199 5.18586 160.867 4.82082C161.534 4.4558 162.296 4.27329 163.151 4.27329C164.016 4.27329 164.783 4.4558 165.45 4.82082C166.129 5.18586 166.655 5.68644 167.031 6.32262C167.416 6.9588 167.61 7.6993 167.61 8.54408C167.61 9.36798 167.416 10.1032 167.031 10.7498C166.655 11.3964 166.129 11.9075 165.45 12.283C164.783 12.648 164.016 12.8305 163.151 12.8305ZM163.151 11.1566C163.63 11.1566 164.058 11.0523 164.433 10.8437C164.809 10.6351 165.101 10.3327 165.31 9.93636C165.529 9.54005 165.638 9.07594 165.638 8.54408C165.638 8.00175 165.529 7.53764 165.31 7.15175C165.101 6.75544 164.809 6.45299 164.433 6.2444C164.058 6.03581 163.636 5.93154 163.166 5.93154C162.687 5.93154 162.259 6.03581 161.884 6.2444C161.519 6.45299 161.227 6.75544 161.007 7.15175C160.789 7.53764 160.679 8.00175 160.679 8.54408C160.679 9.07594 160.789 9.54005 161.007 9.93636C161.227 10.3327 161.519 10.6351 161.884 10.8437C162.259 11.0523 162.682 11.1566 163.151 11.1566ZM169.479 12.721V1.11323H171.435V12.721H169.479ZM177.756 12.8305C176.901 12.8305 176.139 12.648 175.472 12.283C174.804 11.9075 174.278 11.3964 173.892 10.7498C173.506 10.1032 173.313 9.36798 173.313 8.54408C173.313 7.70972 173.506 6.97444 173.892 6.33826C174.278 5.69167 174.804 5.18586 175.472 4.82082C176.139 4.4558 176.901 4.27329 177.756 4.27329C178.622 4.27329 179.388 4.4558 180.056 4.82082C180.733 5.18586 181.26 5.68644 181.635 6.32262C182.021 6.9588 182.214 7.6993 182.214 8.54408C182.214 9.36798 182.021 10.1032 181.635 10.7498C181.26 11.3964 180.733 11.9075 180.056 12.283C179.388 12.648 178.622 12.8305 177.756 12.8305ZM177.756 11.1566C178.236 11.1566 178.663 11.0523 179.039 10.8437C179.414 10.6351 179.706 10.3327 179.915 9.93636C180.134 9.54005 180.243 9.07594 180.243 8.54408C180.243 8.00175 180.134 7.53764 179.915 7.15175C179.706 6.75544 179.414 6.45299 179.039 6.2444C178.663 6.03581 178.241 5.93154 177.772 5.93154C177.292 5.93154 176.864 6.03581 176.489 6.2444C176.124 6.45299 175.832 6.75544 175.613 7.15175C175.394 7.53764 175.284 8.00175 175.284 8.54408C175.284 9.07594 175.394 9.54005 175.613 9.93636C175.832 10.3327 176.124 10.6351 176.489 10.8437C176.864 11.0523 177.286 11.1566 177.756 11.1566ZM187.87 15.8654C187.098 15.8654 186.342 15.7611 185.602 15.5525C184.872 15.3543 184.272 15.0623 183.803 14.6764L184.679 13.2059C185.044 13.5084 185.503 13.7482 186.055 13.9255C186.618 14.1132 187.187 14.2072 187.76 14.2072C188.678 14.2072 189.351 13.9933 189.779 13.5657C190.206 13.1486 190.42 12.5176 190.42 11.6728V10.1866L190.577 8.29374L190.514 6.40083V4.36715H192.375V11.4538C192.375 12.9661 191.989 14.0768 191.218 14.7859C190.446 15.5056 189.33 15.8654 187.87 15.8654ZM187.62 12.3455C186.827 12.3455 186.108 12.1786 185.461 11.8449C184.825 11.5008 184.319 11.0262 183.944 10.4213C183.578 9.81644 183.396 9.10723 183.396 8.29374C183.396 7.49071 183.578 6.78673 183.944 6.18183C184.319 5.57693 184.825 5.10764 185.461 4.77389C186.108 4.44016 186.827 4.27329 187.62 4.27329C188.329 4.27329 188.965 4.41408 189.528 4.69567C190.091 4.97727 190.54 5.41527 190.874 6.00976C191.218 6.60424 191.39 7.36557 191.39 8.29374C191.39 9.22196 191.218 9.98852 190.874 10.5934C190.54 11.1878 190.091 11.6311 189.528 11.9231C188.965 12.2047 188.329 12.3455 187.62 12.3455ZM187.917 10.6873C188.407 10.6873 188.845 10.5882 189.231 10.3901C189.617 10.1815 189.914 9.89984 190.123 9.54528C190.342 9.18026 190.451 8.76308 190.451 8.29374C190.451 7.82445 190.342 7.4125 190.123 7.05789C189.914 6.69287 189.617 6.41648 189.231 6.22876C188.845 6.03063 188.407 5.93154 187.917 5.93154C187.427 5.93154 186.984 6.03063 186.587 6.22876C186.201 6.41648 185.899 6.69287 185.68 7.05789C185.471 7.4125 185.367 7.82445 185.367 8.29374C185.367 8.76308 185.471 9.18026 185.68 9.54528C185.899 9.89984 186.201 10.1815 186.587 10.3901C186.984 10.5882 187.427 10.6873 187.917 10.6873ZM194.947 12.721V4.36715H196.902V12.721H194.947ZM195.932 2.99049C195.567 2.99049 195.264 2.87577 195.025 2.64633C194.795 2.41689 194.68 2.14052 194.68 1.81721C194.68 1.48347 194.795 1.20709 195.025 0.988082C195.264 0.758638 195.567 0.643921 195.932 0.643921C196.297 0.643921 196.594 0.753427 196.824 0.972439C197.063 1.18102 197.184 1.44697 197.184 1.77027C197.184 2.11444 197.069 2.40646 196.839 2.64633C196.61 2.87577 196.307 2.99049 195.932 2.99049ZM203.395 12.8305C202.467 12.8305 201.653 12.648 200.954 12.283C200.266 11.9075 199.729 11.3964 199.343 10.7498C198.968 10.1032 198.78 9.36798 198.78 8.54408C198.78 7.70972 198.962 6.97444 199.328 6.33826C199.703 5.69167 200.214 5.18586 200.861 4.82082C201.518 4.4558 202.263 4.27329 203.098 4.27329C203.911 4.27329 204.636 4.45059 205.272 4.80518C205.908 5.15975 206.409 5.66038 206.774 6.30698C207.139 6.95362 207.322 7.71495 207.322 8.59101C207.322 8.6744 207.316 8.76831 207.306 8.87258C207.306 8.97685 207.301 9.07594 207.291 9.1698H200.329V7.87138H206.258L205.491 8.2781C205.502 7.79839 205.403 7.37598 205.194 7.01096C204.985 6.64594 204.699 6.35913 204.334 6.15054C203.979 5.94195 203.567 5.83768 203.098 5.83768C202.618 5.83768 202.196 5.94195 201.831 6.15054C201.476 6.35913 201.195 6.65117 200.986 7.0266C200.788 7.39162 200.689 7.82445 200.689 8.32503V8.63793C200.689 9.13851 200.803 9.58175 201.033 9.96764C201.262 10.3535 201.585 10.6508 202.003 10.8593C202.42 11.0679 202.9 11.1722 203.442 11.1722C203.911 11.1722 204.334 11.0992 204.709 10.9532C205.085 10.8072 205.418 10.5778 205.71 10.2649L206.758 11.4695C206.383 11.9075 205.908 12.2464 205.335 12.4863C204.772 12.7157 204.125 12.8305 203.395 12.8305ZM211.781 12.8305C211.083 12.8305 210.41 12.7418 209.763 12.5645C209.127 12.3768 208.621 12.1526 208.246 11.8918L208.997 10.4057C209.372 10.6456 209.821 10.8437 210.342 11.0001C210.863 11.1566 211.385 11.2348 211.906 11.2348C212.522 11.2348 212.965 11.1514 213.236 10.9845C213.518 10.8176 213.659 10.5934 213.659 10.3118C213.659 10.0824 213.565 9.9103 213.377 9.79557C213.189 9.67042 212.944 9.57657 212.642 9.51399C212.339 9.45142 212 9.39403 211.625 9.34187C211.26 9.28976 210.889 9.22196 210.514 9.13851C210.149 9.04465 209.815 8.91428 209.513 8.74744C209.21 8.57013 208.965 8.33549 208.777 8.04345C208.59 7.75141 208.496 7.36557 208.496 6.88582C208.496 6.3539 208.647 5.89503 208.95 5.50913C209.252 5.11282 209.674 4.8104 210.217 4.60181C210.77 4.3828 211.421 4.27329 212.172 4.27329C212.736 4.27329 213.304 4.33586 213.878 4.46102C214.451 4.58617 214.926 4.76346 215.301 4.99291L214.55 6.47905C214.154 6.23922 213.752 6.07756 213.346 5.99411C212.949 5.90026 212.553 5.85333 212.157 5.85333C211.562 5.85333 211.119 5.94195 210.827 6.11926C210.546 6.29656 210.405 6.5208 210.405 6.79196C210.405 7.04225 210.499 7.22996 210.686 7.35511C210.874 7.4803 211.119 7.57934 211.421 7.65238C211.724 7.72536 212.058 7.78793 212.423 7.84009C212.798 7.88179 213.168 7.94959 213.533 8.04345C213.898 8.13731 214.232 8.26768 214.534 8.43458C214.848 8.59101 215.098 8.81524 215.285 9.10723C215.473 9.39926 215.567 9.77993 215.567 10.2492C215.567 10.7707 215.41 11.2244 215.098 11.6103C214.795 11.9962 214.362 12.2986 213.799 12.5176C213.236 12.7262 212.563 12.8305 211.781 12.8305Z" fill="white"/>
<path d="M44.9302 25.8786V23.4371L45.0898 23.8691L42.3009 19.3053H43.0427L45.4936 23.315H45.0992L47.5501 19.3053H48.245L45.456 23.8691L45.6157 23.4371V25.8786H44.9302ZM50.6319 25.9255C50.1564 25.9255 49.7273 25.8191 49.3456 25.6063C48.9698 25.3872 48.6724 25.0898 48.4535 24.7142C48.2343 24.3323 48.1247 23.8972 48.1247 23.4089C48.1247 22.9144 48.2343 22.4793 48.4535 22.1037C48.6724 21.7281 48.9698 21.4338 49.3456 21.221C49.721 21.0081 50.1501 20.9017 50.6319 20.9017C51.1201 20.9017 51.5521 21.0081 51.9279 21.221C52.3096 21.4338 52.6069 21.7281 52.82 22.1037C53.0389 22.4793 53.1484 22.9144 53.1484 23.4089C53.1484 23.8972 53.0389 24.3323 52.82 24.7142C52.6069 25.0898 52.3096 25.3872 51.9279 25.6063C51.5458 25.8191 51.1138 25.9255 50.6319 25.9255ZM50.6319 25.3339C50.9889 25.3339 51.3051 25.2557 51.5802 25.0992C51.8558 24.9364 52.0718 24.711 52.2282 24.4231C52.3909 24.1289 52.4723 23.7908 52.4723 23.4089C52.4723 23.0208 52.3909 22.6827 52.2282 22.3947C52.0718 22.1068 51.8558 21.8845 51.5802 21.7281C51.3051 21.5653 50.9918 21.4839 50.6412 21.4839C50.291 21.4839 49.9777 21.5653 49.7021 21.7281C49.427 21.8845 49.2076 22.1068 49.0449 22.3947C48.8822 22.6827 48.8008 23.0208 48.8008 23.4089C48.8008 23.7908 48.8822 24.1289 49.0449 24.4231C49.2076 24.711 49.427 24.9364 49.7021 25.0992C49.9777 25.2557 50.2876 25.3339 50.6319 25.3339ZM56.5472 25.9255C56.1278 25.9255 55.7617 25.8473 55.4488 25.6908C55.1355 25.5343 54.8914 25.2995 54.7161 24.9865C54.5471 24.6735 54.4628 24.2822 54.4628 23.8127V20.9487H55.1297V23.7376C55.1297 24.2634 55.258 24.661 55.5147 24.9301C55.7772 25.1931 56.1438 25.3246 56.6131 25.3246C56.9575 25.3246 57.2548 25.2557 57.5052 25.1179C57.7619 24.974 57.9561 24.7674 58.0873 24.4982C58.2254 24.229 58.2941 23.9066 58.2941 23.531V20.9487H58.9605V25.8786H58.3222V24.5264L58.4254 24.7705C58.269 25.1336 58.0249 25.4185 57.6931 25.6251C57.3677 25.8254 56.9855 25.9255 56.5472 25.9255ZM60.8188 25.8786V20.9487H61.4576V22.2914L61.3918 22.0567C61.5293 21.6811 61.7608 21.3963 62.0867 21.2022C62.4122 21.0018 62.8161 20.9017 63.298 20.9017V21.5496C63.2728 21.5496 63.2476 21.5496 63.2229 21.5496C63.1977 21.5434 63.1725 21.5402 63.1478 21.5402C62.6282 21.5402 62.2214 21.6999 61.9269 22.0191C61.6329 22.3322 61.4857 22.7798 61.4857 23.362V25.8786H60.8188ZM67.1865 25.8786V19.3053H67.8814V25.8786H67.1865ZM71.2972 25.8786V19.9063H68.9871V19.3053H74.3019V19.9063H71.9917V25.8786H71.2972ZM77.8697 25.8786V19.3053H80.33C80.887 19.3053 81.3659 19.3961 81.7665 19.5776C82.1675 19.753 82.474 20.0096 82.6871 20.3476C82.906 20.6794 83.0155 21.0833 83.0155 21.559C83.0155 22.0223 82.906 22.4229 82.6871 22.761C82.474 23.0928 82.1675 23.3495 81.7665 23.531C81.3659 23.7125 80.887 23.8033 80.33 23.8033H78.2548L78.5647 23.4747V25.8786H77.8697ZM78.5647 23.531L78.2548 23.1929H80.3111C80.9683 23.1929 81.4662 23.0521 81.8042 22.7704C82.1486 22.4824 82.3205 22.0786 82.3205 21.559C82.3205 21.0332 82.1486 20.6263 81.8042 20.3383C81.4662 20.0503 80.9683 19.9063 80.3111 19.9063H78.2548L78.5647 19.5776V23.531ZM87.4207 25.8786V24.7893L87.3926 24.6109V22.7892C87.3926 22.3697 87.274 22.0473 87.0357 21.822C86.8042 21.5966 86.457 21.4839 85.9935 21.4839C85.6743 21.4839 85.3707 21.5371 85.0825 21.6435C84.7948 21.7499 84.5507 21.8908 84.3502 22.0661L84.05 21.5684C84.3003 21.3556 84.6006 21.1928 84.9512 21.0801C85.3019 20.9612 85.6709 20.9017 86.0593 20.9017C86.6977 20.9017 87.1892 21.0613 87.5336 21.3806C87.8842 21.6936 88.0595 22.1725 88.0595 22.8173V25.8786H87.4207ZM85.7213 25.9255C85.3518 25.9255 85.0292 25.8661 84.7541 25.7471C84.4849 25.6219 84.2781 25.4529 84.1342 25.24C83.9904 25.0209 83.9182 24.7705 83.9182 24.4888C83.9182 24.2322 83.9778 24.0005 84.0965 23.7939C84.2219 23.5811 84.4224 23.412 84.6975 23.2868C84.9793 23.1554 85.3552 23.0896 85.8245 23.0896H87.5244V23.5874H85.8433C85.3673 23.5874 85.0355 23.6719 84.8481 23.8409C84.6665 24.0099 84.5754 24.2196 84.5754 24.47C84.5754 24.7517 84.6854 24.9771 84.9043 25.1461C85.1232 25.3152 85.4302 25.3997 85.8245 25.3997C86.2003 25.3997 86.5223 25.3152 86.7916 25.1461C87.0672 24.9709 87.2677 24.7204 87.3926 24.3949L87.5428 24.855C87.4178 25.1806 87.1984 25.4403 86.8856 25.6344C86.579 25.8285 86.1906 25.9255 85.7213 25.9255ZM89.8703 25.8786V20.9487H90.5086V22.2914L90.4433 22.0567C90.5808 21.6811 90.8123 21.3963 91.1378 21.2022C91.4637 21.0018 91.8671 20.9017 92.3495 20.9017V21.5496C92.3243 21.5496 92.2991 21.5496 92.2744 21.5496C92.2492 21.5434 92.2241 21.5402 92.1989 21.5402C91.6797 21.5402 91.2724 21.6999 90.9784 22.0191C90.684 22.3322 90.5372 22.7798 90.5372 23.362V25.8786H89.8703ZM95.3357 25.9255C94.8722 25.9255 94.5153 25.8003 94.2649 25.5499C94.0145 25.2995 93.8896 24.9458 93.8896 24.4888V19.8594H94.556V24.4513C94.556 24.7392 94.6281 24.9615 94.772 25.1179C94.9226 25.2745 95.1352 25.3527 95.4108 25.3527C95.7048 25.3527 95.9493 25.2682 96.1431 25.0992L96.3779 25.5781C96.2467 25.697 96.0869 25.7847 95.899 25.841C95.7174 25.8973 95.5294 25.9255 95.3357 25.9255ZM93.0067 21.5027V20.9487H96.0588V21.5027H93.0067ZM100.108 20.9017C100.509 20.9017 100.86 20.98 101.16 21.1365C101.467 21.2867 101.705 21.5184 101.874 21.8314C102.049 22.1444 102.137 22.5387 102.137 23.0145V25.8786H101.47V23.0802C101.47 22.5607 101.338 22.1694 101.076 21.9065C100.819 21.6372 100.456 21.5027 99.986 21.5027C99.6354 21.5027 99.3288 21.5747 99.0658 21.7187C98.8091 21.8564 98.6091 22.0599 98.4648 22.329C98.3273 22.592 98.2585 22.9112 98.2585 23.2868V25.8786H97.5916V20.9487H98.2304V22.3008L98.1268 22.0473C98.2832 21.6905 98.5336 21.4119 98.8779 21.2116C99.2223 21.005 99.6325 20.9017 100.108 20.9017ZM106.032 25.9255C105.518 25.9255 105.067 25.8191 104.679 25.6063C104.291 25.3872 103.987 25.0898 103.768 24.7142C103.55 24.3323 103.44 23.8972 103.44 23.4089C103.44 22.9206 103.543 22.4887 103.75 22.113C103.963 21.7375 104.25 21.4432 104.614 21.2303C104.983 21.0112 105.396 20.9017 105.853 20.9017C106.316 20.9017 106.727 21.0081 107.083 21.221C107.446 21.4275 107.731 21.7218 107.938 22.1037C108.144 22.4793 108.248 22.9144 108.248 23.4089C108.248 23.4402 108.244 23.4747 108.238 23.5122C108.238 23.5435 108.238 23.578 108.238 23.6155H103.947V23.1178H107.882L107.619 23.315C107.619 22.9582 107.54 22.642 107.384 22.3666C107.234 22.0849 107.027 21.8658 106.764 21.7093C106.501 21.5527 106.197 21.4745 105.853 21.4745C105.515 21.4745 105.212 21.5527 104.942 21.7093C104.673 21.8658 104.463 22.0849 104.313 22.3666C104.163 22.6483 104.088 22.9707 104.088 23.3338V23.4371C104.088 23.8127 104.169 24.1445 104.332 24.4325C104.501 24.7142 104.733 24.9364 105.027 25.0992C105.327 25.2557 105.668 25.3339 106.05 25.3339C106.351 25.3339 106.629 25.2807 106.886 25.1743C107.149 25.0679 107.375 24.9051 107.562 24.686L107.938 25.1179C107.718 25.3809 107.443 25.5812 107.112 25.719C106.786 25.8567 106.426 25.9255 106.032 25.9255ZM109.605 25.8786V20.9487H110.243V22.2914L110.178 22.0567C110.315 21.6811 110.547 21.3963 110.872 21.2022C111.198 21.0018 111.602 20.9017 112.084 20.9017V21.5496C112.059 21.5496 112.034 21.5496 112.008 21.5496C111.984 21.5434 111.959 21.5402 111.933 21.5402C111.414 21.5402 111.007 21.6999 110.713 22.0191C110.418 22.3322 110.271 22.7798 110.271 23.362V25.8786H109.605ZM112.878 27.2496L113.291 25.5124L113.366 25.9161C113.223 25.9161 113.101 25.8692 113 25.7753C112.906 25.6814 112.859 25.5593 112.859 25.4091C112.859 25.2588 112.906 25.1367 113 25.0428C113.101 24.9489 113.219 24.902 113.357 24.902C113.501 24.902 113.617 24.9521 113.704 25.0522C113.798 25.1524 113.845 25.2713 113.845 25.4091C113.845 25.4591 113.842 25.5092 113.836 25.5593C113.83 25.6094 113.817 25.6657 113.798 25.7283C113.78 25.7909 113.755 25.8661 113.723 25.9537L113.329 27.2496H112.878ZM118.49 22.2445H121.965V22.8361H118.49V22.2445ZM118.565 25.2776H122.519V25.8786H117.87V19.3053H122.378V19.9063H118.565V25.2776ZM124.011 25.8786V18.9109H124.678V25.8786H124.011ZM128.627 25.9255C128.114 25.9255 127.663 25.8191 127.275 25.6063C126.887 25.3872 126.583 25.0898 126.364 24.7142C126.145 24.3323 126.035 23.8972 126.035 23.4089C126.035 22.9206 126.138 22.4887 126.345 22.113C126.558 21.7375 126.846 21.4432 127.209 21.2303C127.578 21.0112 127.991 20.9017 128.449 20.9017C128.912 20.9017 129.322 21.0081 129.679 21.221C130.042 21.4275 130.327 21.7218 130.533 22.1037C130.74 22.4793 130.843 22.9144 130.843 23.4089C130.843 23.4402 130.84 23.4747 130.834 23.5122C130.834 23.5435 130.834 23.578 130.834 23.6155H126.542V23.1178H130.477L130.214 23.315C130.214 22.9582 130.136 22.642 129.979 22.3666C129.829 22.0849 129.623 21.8658 129.36 21.7093C129.097 21.5527 128.793 21.4745 128.449 21.4745C128.111 21.4745 127.807 21.5527 127.538 21.7093C127.268 21.8658 127.059 22.0849 126.909 22.3666C126.758 22.6483 126.683 22.9707 126.683 23.3338V23.4371C126.683 23.8127 126.765 24.1445 126.927 24.4325C127.096 24.7142 127.328 24.9364 127.622 25.0992C127.923 25.2557 128.264 25.3339 128.646 25.3339C128.946 25.3339 129.225 25.2807 129.482 25.1743C129.745 25.0679 129.97 24.9051 130.158 24.686L130.533 25.1179C130.314 25.3809 130.039 25.5812 129.707 25.719C129.381 25.8567 129.022 25.9255 128.627 25.9255ZM133.376 25.8786L131.188 20.9487H131.883L133.893 25.5218H133.564L135.602 20.9487H136.259L134.062 25.8786H133.376ZM140.141 25.8786V24.7893L140.113 24.6109V22.7892C140.113 22.3697 139.993 22.0473 139.756 21.822C139.524 21.5966 139.176 21.4839 138.713 21.4839C138.394 21.4839 138.091 21.5371 137.802 21.6435C137.515 21.7499 137.27 21.8908 137.07 22.0661L136.769 21.5684C137.02 21.3556 137.321 21.1928 137.671 21.0801C138.022 20.9612 138.391 20.9017 138.779 20.9017C139.418 20.9017 139.909 21.0613 140.254 21.3806C140.604 21.6936 140.779 22.1725 140.779 22.8173V25.8786H140.141ZM138.441 25.9255C138.072 25.9255 137.749 25.8661 137.474 25.7471C137.205 25.6219 136.998 25.4529 136.854 25.24C136.71 25.0209 136.638 24.7705 136.638 24.4888C136.638 24.2322 136.698 24.0005 136.816 23.7939C136.942 23.5811 137.142 23.412 137.417 23.2868C137.699 23.1554 138.075 23.0896 138.544 23.0896H140.244V23.5874H138.563C138.087 23.5874 137.756 23.6719 137.568 23.8409C137.386 24.0099 137.295 24.2196 137.295 24.47C137.295 24.7517 137.405 24.9771 137.624 25.1461C137.843 25.3152 138.15 25.3997 138.544 25.3997C138.92 25.3997 139.242 25.3152 139.512 25.1461C139.787 24.9709 139.987 24.7204 140.113 24.3949L140.263 24.855C140.138 25.1806 139.918 25.4403 139.606 25.6344C139.299 25.8285 138.911 25.9255 138.441 25.9255ZM144.149 25.9255C143.686 25.9255 143.329 25.8003 143.078 25.5499C142.828 25.2995 142.703 24.9458 142.703 24.4888V19.8594H143.37V24.4513C143.37 24.7392 143.442 24.9615 143.586 25.1179C143.736 25.2745 143.949 25.3527 144.224 25.3527C144.518 25.3527 144.762 25.2682 144.957 25.0992L145.191 25.5781C145.06 25.697 144.9 25.7847 144.713 25.841C144.531 25.8973 144.343 25.9255 144.149 25.9255ZM141.82 21.5027V20.9487H144.872V21.5027H141.82ZM148.325 25.9255C147.812 25.9255 147.361 25.8191 146.973 25.6063C146.584 25.3872 146.281 25.0898 146.062 24.7142C145.842 24.3323 145.733 23.8972 145.733 23.4089C145.733 22.9206 145.836 22.4887 146.043 22.113C146.256 21.7375 146.544 21.4432 146.907 21.2303C147.276 21.0112 147.69 20.9017 148.146 20.9017C148.61 20.9017 149.019 21.0081 149.376 21.221C149.74 21.4275 150.024 21.7218 150.231 22.1037C150.438 22.4793 150.541 22.9144 150.541 23.4089C150.541 23.4402 150.538 23.4747 150.531 23.5122C150.531 23.5435 150.531 23.578 150.531 23.6155H146.24V23.1178H150.175L149.912 23.315C149.912 22.9582 149.834 22.642 149.677 22.3666C149.527 22.0849 149.32 21.8658 149.057 21.7093C148.794 21.5527 148.491 21.4745 148.146 21.4745C147.808 21.4745 147.505 21.5527 147.235 21.7093C146.966 21.8658 146.757 22.0849 146.606 22.3666C146.456 22.6483 146.381 22.9707 146.381 23.3338V23.4371C146.381 23.8127 146.462 24.1445 146.625 24.4325C146.794 24.7142 147.026 24.9364 147.32 25.0992C147.62 25.2557 147.962 25.3339 148.343 25.3339C148.644 25.3339 148.923 25.2807 149.179 25.1743C149.442 25.0679 149.667 24.9051 149.855 24.686L150.231 25.1179C150.012 25.3809 149.736 25.5812 149.404 25.719C149.079 25.8567 148.719 25.9255 148.325 25.9255ZM153.861 25.9255C153.391 25.9255 152.968 25.8191 152.593 25.6063C152.224 25.3934 151.933 25.0992 151.719 24.7236C151.507 24.3417 151.4 23.9035 151.4 23.4089C151.4 22.9081 151.507 22.4699 151.719 22.0943C151.933 21.7187 152.224 21.4275 152.593 21.221C152.968 21.0081 153.391 20.9017 153.861 20.9017C154.293 20.9017 154.678 20.9987 155.016 21.1928C155.36 21.3869 155.632 21.6717 155.833 22.0473C156.039 22.4167 156.143 22.8705 156.143 23.4089C156.143 23.941 156.042 24.3949 155.842 24.7705C155.641 25.1461 155.369 25.4341 155.025 25.6344C154.687 25.8285 154.299 25.9255 153.861 25.9255ZM153.908 25.3339C154.258 25.3339 154.571 25.2557 154.847 25.0992C155.128 24.9364 155.347 24.711 155.504 24.4231C155.667 24.1289 155.748 23.7908 155.748 23.4089C155.748 23.0208 155.667 22.6827 155.504 22.3947C155.347 22.1068 155.128 21.8845 154.847 21.7281C154.571 21.5653 154.258 21.4839 153.908 21.4839C153.563 21.4839 153.253 21.5653 152.978 21.7281C152.703 21.8845 152.483 22.1068 152.32 22.3947C152.158 22.6827 152.076 23.0208 152.076 23.4089C152.076 23.7908 152.158 24.1289 152.32 24.4231C152.483 24.711 152.703 24.9364 152.978 25.0992C153.253 25.2557 153.563 25.3339 153.908 25.3339ZM155.767 25.8786V24.3949L155.833 23.3995L155.739 22.4041V18.9109H156.405V25.8786H155.767Z" fill="white"/>
<path d="M18.7458 20.4993C17.8619 23.6811 16.6835 24.8598 15.2105 26.5096H28.2913C31.6498 26.5096 33.4176 23.917 34.1246 22.9743C38.0134 15.3732 31.8266 10.4238 27.2306 10.7772C21.7486 10.7772 19.9759 16.0711 18.7458 20.4993Z" stroke="white" stroke-width="0.353534"/>
<path d="M17.5087 16.9641C18.7461 10.6005 25.699 8.4204 28.2916 8.83284C26.8775 4.30767 23.46 1.99786 21.928 1.40861C19.6653 0.277297 16.5071 0.583695 15.2108 0.878307C9.41289 2.57527 7.72771 7.94903 7.60983 10.4238C3.08459 10.9895 1.24622 15.0197 0.892691 16.9641C-0.0972072 21.4894 3.7209 25.0365 5.48857 25.9793C14.3269 28.8075 16.6494 21.3833 17.5087 16.9641Z" stroke="white" stroke-width="0.353534"/>
<path d="M19.099 18.5547C18.2534 22.01 15.748 25.4129 14.6798 26.6859H28.998C30.2441 26.6859 34.132 25.2106 35.3616 20.8526C36.8104 15.7176 33.1918 11.2279 28.2072 10.5005C23.2225 9.77301 20.1671 14.1901 19.099 18.5547Z" fill="url(#paint0_linear_6620_1936)" stroke="white" stroke-width="0.445348"/>
<path d="M8.13975 10.4236L12.0286 7.41861M8.13975 10.4236L11.6751 15.3731M8.13975 10.4236L7.07912 18.7317M8.13975 10.4236L3.54378 12.8984L7.07912 18.7317M12.0286 7.41861L10.4377 4.41355M12.0286 7.41861L15.0336 1.40851L18.3922 5.2974M12.0286 7.41861L15.7407 10.7772M12.0286 7.41861L18.3922 5.2974M12.0286 7.41861L11.6751 15.3731M11.6751 15.3731L15.7407 10.7772M11.6751 15.3731L17.3316 17.3176M11.6751 15.3731L7.07912 18.7317M11.6751 15.3731L12.3822 21.3832M7.07912 18.7317L0.892273 16.964M7.07912 18.7317L2.65994 23.858M7.07912 18.7317L9.55387 26.5095L12.3822 21.3832M7.07912 18.7317L12.3822 21.3832M18.3922 5.2974L21.7508 1.40851L22.8114 5.65094M18.3922 5.2974L21.7508 10.0701M18.3922 5.2974L15.7407 10.7772M15.7407 10.7772L21.7508 10.0701M15.7407 10.7772L17.3316 17.3176M22.8114 5.65094L27.9376 8.30241M22.8114 5.65094L21.7508 10.0701M17.3316 17.3176L12.3822 21.3832M12.3822 21.3832L15.7407 22.9741" stroke="white" stroke-width="0.445348"/>
<path d="M6.54891 19.7568C7.01751 19.7568 7.39739 19.3769 7.39739 18.9083C7.39739 18.4397 7.01751 18.0598 6.54891 18.0598C6.0803 18.0598 5.70042 18.4397 5.70042 18.9083C5.70042 19.3769 6.0803 19.7568 6.54891 19.7568Z" fill="white" stroke="white" stroke-width="0.424241"/>
<path d="M2.65919 24.4237C2.97159 24.4237 3.22484 24.1705 3.22484 23.8581C3.22484 23.5457 2.97159 23.2924 2.65919 23.2924C2.34679 23.2924 2.09354 23.5457 2.09354 23.8581C2.09354 24.1705 2.34679 24.4237 2.65919 24.4237Z" fill="white" stroke="white" stroke-width="0.282828"/>
<path d="M0.892527 17.3527C1.20493 17.3527 1.45818 17.0994 1.45818 16.787C1.45818 16.4746 1.20493 16.2214 0.892527 16.2214C0.580126 16.2214 0.326874 16.4746 0.326874 16.787C0.326874 17.0994 0.580126 17.3527 0.892527 17.3527Z" fill="white" stroke="white" stroke-width="0.282828"/>
<path d="M3.36709 13.4639C3.67949 13.4639 3.93274 13.2106 3.93274 12.8982C3.93274 12.5858 3.67949 12.3326 3.36709 12.3326C3.05469 12.3326 2.80144 12.5858 2.80144 12.8982C2.80144 13.2106 3.05469 13.4639 3.36709 13.4639Z" fill="white" stroke="white" stroke-width="0.282828"/>
<path d="M7.60932 11.3428C7.92173 11.3428 8.17498 11.0895 8.17498 10.7771C8.17498 10.4647 7.92173 10.2115 7.60932 10.2115C7.29692 10.2115 7.04367 10.4647 7.04367 10.7771C7.04367 11.0895 7.29692 11.3428 7.60932 11.3428Z" fill="white" stroke="white" stroke-width="0.282828"/>
<path d="M12.3822 7.77175C12.7727 7.77175 13.0893 7.45518 13.0893 7.06468C13.0893 6.67417 12.7727 6.3576 12.3822 6.3576C11.9917 6.3576 11.6751 6.67417 11.6751 7.06468C11.6751 7.45518 11.9917 7.77175 12.3822 7.77175Z" fill="white" stroke="white" stroke-width="0.353534"/>
<path d="M10.0844 4.80245C10.3968 4.80245 10.6501 4.5492 10.6501 4.2368C10.6501 3.92439 10.3968 3.67114 10.0844 3.67114C9.772 3.67114 9.51875 3.92439 9.51875 4.2368C9.51875 4.5492 9.772 4.80245 10.0844 4.80245Z" fill="white" stroke="white" stroke-width="0.282827"/>
<path d="M15.0335 1.76186C15.424 1.76186 15.7405 1.44529 15.7405 1.05479C15.7405 0.664284 15.424 0.347717 15.0335 0.347717C14.643 0.347717 14.3264 0.664284 14.3264 1.05479C14.3264 1.44529 14.643 1.76186 15.0335 1.76186Z" fill="white" stroke="white" stroke-width="0.353534"/>
<path d="M18.2158 6.1457C18.6844 6.1457 19.0643 5.76582 19.0643 5.29721C19.0643 4.82861 18.6844 4.44873 18.2158 4.44873C17.7472 4.44873 17.3674 4.82861 17.3674 5.29721C17.3674 5.76582 17.7472 6.1457 18.2158 6.1457Z" fill="white" stroke="white" stroke-width="0.424241"/>
<path d="M21.9275 2.11525C22.318 2.11525 22.6346 1.79869 22.6346 1.40818C22.6346 1.01768 22.318 0.701111 21.9275 0.701111C21.537 0.701111 21.2204 1.01768 21.2204 1.40818C21.2204 1.79869 21.537 2.11525 21.9275 2.11525Z" fill="white" stroke="white" stroke-width="0.353534"/>
<path d="M22.6349 6.3575C23.0254 6.3575 23.3419 6.04093 23.3419 5.65043C23.3419 5.25993 23.0254 4.94336 22.6349 4.94336C22.2444 4.94336 21.9278 5.25993 21.9278 5.65043C21.9278 6.04093 22.2444 6.3575 22.6349 6.3575Z" fill="white" stroke="white" stroke-width="0.353534"/>
<path d="M27.9379 9.18605C28.3284 9.18605 28.645 8.86949 28.645 8.47898C28.645 8.08848 28.3284 7.77191 27.9379 7.77191C27.5474 7.77191 27.2309 8.08848 27.2309 8.47898C27.2309 8.86949 27.5474 9.18605 27.9379 9.18605Z" fill="white" stroke="white" stroke-width="0.353534"/>
<path d="M21.5741 11.3071C21.9646 11.3071 22.2811 10.9906 22.2811 10.6001C22.2811 10.2096 21.9646 9.89301 21.5741 9.89301C21.1835 9.89301 20.867 10.2096 20.867 10.6001C20.867 10.9906 21.1835 11.3071 21.5741 11.3071Z" fill="white" stroke="white" stroke-width="0.353534"/>
<path d="M15.5641 11.6608C15.9546 11.6608 16.2712 11.3443 16.2712 10.9538C16.2712 10.5633 15.9546 10.2467 15.5641 10.2467C15.1736 10.2467 14.857 10.5633 14.857 10.9538C14.857 11.3443 15.1736 11.6608 15.5641 11.6608Z" fill="white" stroke="white" stroke-width="0.353534"/>
<path d="M11.498 16.0444C11.9666 16.0444 12.3465 15.6646 12.3465 15.196C12.3465 14.7274 11.9666 14.3475 11.498 14.3475C11.0294 14.3475 10.6495 14.7274 10.6495 15.196C10.6495 15.6646 11.0294 16.0444 11.498 16.0444Z" fill="white" stroke="white" stroke-width="0.424241"/>
<path d="M12.5588 22.2313C13.0274 22.2313 13.4073 21.8515 13.4073 21.3828C13.4073 20.9142 13.0274 20.5344 12.5588 20.5344C12.0902 20.5344 11.7104 20.9142 11.7104 21.3828C11.7104 21.8515 12.0902 22.2313 12.5588 22.2313Z" fill="white" stroke="white" stroke-width="0.424241"/>
<path d="M9.55367 27.2168C9.94418 27.2168 10.2607 26.9002 10.2607 26.5097C10.2607 26.1192 9.94418 25.8027 9.55367 25.8027C9.16317 25.8027 8.8466 26.1192 8.8466 26.5097C8.8466 26.9002 9.16317 27.2168 9.55367 27.2168Z" fill="white" stroke="white" stroke-width="0.353534"/>
<path d="M15.917 23.6807C16.3076 23.6807 16.6241 23.3641 16.6241 22.9736C16.6241 22.5831 16.3076 22.2665 15.917 22.2665C15.5265 22.2665 15.21 22.5831 15.21 22.9736C15.21 23.3641 15.5265 23.6807 15.917 23.6807Z" fill="white" stroke="white" stroke-width="0.353534"/>
<path d="M17.3318 18.0244C17.7223 18.0244 18.0389 17.7079 18.0389 17.3174C18.0389 16.9269 17.7223 16.6103 17.3318 16.6103C16.9413 16.6103 16.6247 16.9269 16.6247 17.3174C16.6247 17.7079 16.9413 18.0244 17.3318 18.0244Z" fill="white" stroke="white" stroke-width="0.353534"/>
</g>
<defs>
<linearGradient id="paint0_linear_6620_1936" x1="32.9181" y1="13.5314" x2="14.8815" y2="26.8918" gradientUnits="userSpaceOnUse">
<stop stop-color="white"/>
<stop offset="1" stop-color="#056FE7"/>
</linearGradient>
<clipPath id="clip0_6620_1936">
<rect width="216" height="27.6054" fill="white"/>
</clipPath>
</defs>
</svg>
