<svg width="133" height="28" viewBox="0 0 133 28" fill="none" xmlns="http://www.w3.org/2000/svg">
<path d="M126.475 18.2666C126.475 17.6484 126.925 17.1987 127.6 17.1987C128.275 17.1987 128.725 17.6484 128.725 18.2666C128.725 18.8848 128.275 19.3345 127.6 19.3345C126.925 19.3345 126.475 18.8848 126.475 18.2666Z" fill="white"/>
<path d="M112.465 23.7187V25.1238C112.465 25.1238 112.465 25.2362 112.352 25.2362H111.114C111.114 25.2362 111.002 25.2362 111.002 25.1238V23.7187L109.539 21.2457C109.539 21.1895 109.539 21.1333 109.595 21.1333H110.889H110.946L111.677 22.426C111.677 22.426 111.789 22.426 111.846 22.426L112.577 21.1333C112.577 21.1333 112.577 21.1333 112.633 21.1333H113.815C113.871 21.1333 113.927 21.1895 113.871 21.2457L112.408 23.7187H112.465Z" fill="white"/>
<path d="M117.528 24.337V25.0677C117.528 25.0677 117.528 25.1239 117.472 25.1239H114.321C114.321 25.1239 114.265 25.1239 114.265 25.0677V21.0772C114.265 21.0772 114.265 21.021 114.321 21.021H117.415C117.415 21.021 117.472 21.021 117.472 21.0772V21.8078C117.472 21.8078 117.472 21.8641 117.415 21.8641H115.502C115.502 21.8641 115.446 21.864 115.446 21.9203V22.4823C115.446 22.4823 115.446 22.5385 115.502 22.5385H117.19C117.19 22.5385 117.246 22.5385 117.246 22.5947V23.3253C117.246 23.3253 117.246 23.3815 117.19 23.3815H115.502C115.502 23.3815 115.446 23.3815 115.446 23.4378V24.056C115.446 24.056 115.446 24.1122 115.502 24.1122H117.528C117.528 24.1122 117.584 24.1122 117.584 24.1684L117.528 24.337Z" fill="white"/>
<path d="M120.903 24.3932H119.272H119.215L118.934 25.1239C118.934 25.1239 118.934 25.1239 118.878 25.1239H117.865C117.865 25.1239 117.752 25.0677 117.809 25.0115L119.553 21.021C119.553 21.021 119.553 21.021 119.609 21.021H120.678H120.734L122.478 25.0115C122.478 25.0115 122.478 25.1239 122.422 25.1239H121.353H121.297L121.016 24.3932C121.016 24.3932 121.016 24.3932 120.959 24.3932H120.903ZM120.566 23.3815L120.172 22.3699C120.172 22.3137 120.059 22.3137 120.003 22.3699L119.609 23.3815C119.609 23.3815 119.609 23.494 119.665 23.494H120.509C120.509 23.494 120.622 23.494 120.566 23.3815Z" fill="white"/>
<path d="M124.617 24.056H124.11C124.11 24.056 124.054 24.056 124.054 24.1122V25.0677C124.054 25.0677 124.054 25.1239 123.998 25.1239H122.985C122.985 25.1239 122.929 25.1239 122.929 25.0677V21.0772C122.929 21.0772 122.929 21.021 122.985 21.021H124.785C125.911 21.021 126.642 21.583 126.642 22.5385C126.642 23.494 126.361 23.5502 125.911 23.8312C125.911 23.8312 125.911 23.8874 125.911 23.9436L126.698 25.0677C126.698 25.0677 126.698 25.1801 126.642 25.1801H125.573C125.573 25.1801 125.573 25.1801 125.517 25.1801L124.785 24.1684C124.785 24.1684 124.785 24.1684 124.729 24.1684L124.617 24.056ZM124.673 21.9765H124.11C124.11 21.9765 124.054 21.9765 124.054 22.0327V23.1005C124.054 23.1005 124.054 23.1567 124.11 23.1567H124.673C125.179 23.1567 125.404 22.9319 125.404 22.5385C125.404 22.1451 125.179 21.9203 124.673 21.9203V21.9765Z" fill="white"/>
<path fill-rule="evenodd" clip-rule="evenodd" d="M112.465 10.4538C113.366 10.4538 114.266 10.6786 115.053 11.1845C115.279 11.3531 115.447 11.5217 115.672 11.6903C116.235 12.2523 116.685 12.983 116.854 13.826C116.966 14.6691 117.36 15.3997 117.979 16.018C118.71 16.7486 119.723 17.1983 120.792 17.1983C121.861 17.1983 122.874 16.8048 123.605 16.018C124.336 15.2873 124.787 14.2757 124.787 13.2078C124.787 12.1399 124.393 11.1283 123.605 10.3976C122.874 9.66696 121.861 9.21733 120.792 9.21733C119.723 9.21733 118.71 9.61076 117.979 10.3976C117.473 10.9034 117.079 11.5779 116.91 12.3085C116.516 11.6341 115.954 11.0158 115.222 10.6224C115.504 10.0042 115.954 9.38594 116.46 8.88011C117.641 7.69983 119.161 7.08159 120.792 7.08159C122.424 7.08159 123.999 7.69983 125.124 8.88011C126.306 10.0604 126.924 11.5779 126.924 13.2078C126.924 14.8377 126.306 16.4114 125.124 17.5355C123.943 18.7158 122.424 19.334 120.792 19.334C119.161 19.334 117.585 18.7158 116.46 17.5355C115.616 16.6924 114.997 15.5683 114.772 14.3881C114.66 13.9384 114.491 13.545 114.153 13.264C113.253 12.3647 111.734 12.3647 110.89 13.264C110.834 13.3202 110.721 13.4326 110.665 13.545C110.665 13.6012 110.609 13.6574 110.553 13.7136C110.328 14.1071 110.271 14.5005 110.271 14.8939C110.271 15.5121 110.496 16.0742 110.946 16.4676C111.847 17.3669 113.366 17.3669 114.21 16.4676C115.053 15.5683 114.547 16.018 114.66 15.7932C114.885 16.58 115.335 17.2545 115.954 17.7603C115.897 17.8165 115.785 17.9289 115.729 17.9851C113.985 19.7274 111.115 19.7274 109.371 17.9851C108.527 17.142 108.077 16.0742 108.077 14.8939C108.077 14.1071 108.246 13.3202 108.64 12.6458L111.903 7.02539H114.378L112.409 10.3976L112.465 10.4538Z" fill="white"/>
<path fill-rule="evenodd" clip-rule="evenodd" d="M4.838 13.2078C4.838 13.2078 4.27539 13.2078 4.27539 12.702V3.20359C4.27539 3.20359 4.27539 2.69775 4.838 2.69775H8.60747C8.60747 2.69775 10.5766 2.69775 12.3207 3.4284C12.4895 3.4846 13.8397 4.10284 14.5711 5.50794C14.6274 5.62034 15.19 6.5758 15.19 8.14951C15.19 8.26191 15.19 9.5546 14.6274 10.5663C14.6274 10.5663 14.0085 11.6903 12.8833 12.3648C12.7708 12.421 11.6455 13.2078 9.73268 13.2078C9.5639 13.2078 4.89426 13.2078 4.89426 13.2078M10.1828 9.72321C11.0829 9.21738 11.0267 8.14951 11.0829 8.0933C11.0829 6.91303 10.4078 6.5196 10.3515 6.4634C9.67642 6.01377 8.66373 6.01377 8.66373 6.01377C8.43868 6.01377 8.43868 6.23858 8.43868 6.23858V9.89182C8.43868 10.0604 8.66373 10.0604 8.66373 10.0604C9.78894 10.0604 10.1828 9.77941 10.239 9.72321" fill="white"/>
<path fill-rule="evenodd" clip-rule="evenodd" d="M27.005 3.20359C27.005 3.20359 27.005 2.69775 27.5676 2.69775H30.6057C30.6057 2.69775 31.1683 2.69775 31.1683 3.20359V9.32978C31.1683 9.32978 31.1683 9.83562 31.7309 9.83562H34.0939C34.0939 9.83562 34.6565 9.83562 34.6565 10.3414V12.702C34.6565 12.702 34.6565 13.2078 34.0939 13.2078H27.6239C27.6239 13.2078 27.0613 13.2078 27.0613 12.702V3.20359H27.005Z" fill="white"/>
<path fill-rule="evenodd" clip-rule="evenodd" d="M46.7533 7.02549H41.5211C41.0148 7.02549 40.9585 7.53132 40.9585 7.53132V9.49845H42.5901C42.7588 9.49845 42.7026 9.66706 42.7026 9.72326C42.1962 10.4539 41.1273 10.4539 41.0148 10.4539C39.8895 10.4539 39.3832 9.49845 39.3269 9.44224C38.9894 8.824 38.9894 8.14956 38.9894 8.09336C39.0456 7.08169 39.6082 6.51965 39.6645 6.46345C40.3959 5.78901 41.1835 5.84521 41.2398 5.84521C41.9712 5.84521 42.4213 6.23864 42.4775 6.29484C42.7588 6.63206 43.2652 6.46345 43.2652 6.46345C43.2652 6.46345 46.472 5.33938 46.5846 5.33938C46.0782 4.2153 44.6154 3.54086 44.5592 3.48466C43.7715 3.09123 42.9839 2.92262 42.8714 2.86642C41.9149 2.6416 41.0148 2.6416 40.846 2.6416C39.8333 2.6416 39.0456 2.86642 38.9331 2.92262C37.5829 3.25984 36.6264 4.1029 36.5139 4.2153C35.67 5.00216 35.3324 5.84521 35.2762 5.95762C34.7698 7.08169 34.8261 8.20576 34.8261 8.31817C34.8261 9.32984 35.1074 9.94808 35.1636 10.0605C35.5575 11.0721 36.2889 11.8028 36.4014 11.859C37.4141 12.7583 38.483 13.0955 38.6518 13.0955C39.9458 13.4889 41.1273 13.4327 41.2398 13.4327C42.7026 13.4327 43.8278 12.8707 43.9403 12.8145C44.728 12.4772 45.4031 11.9152 45.5156 11.859C46.1345 11.3532 46.5283 10.6787 46.5846 10.5663C47.0909 9.61085 47.1472 8.48678 47.1472 8.48678V7.58752C47.1472 7.64373 47.1472 7.08169 46.6408 7.08169" fill="white"/>
<path fill-rule="evenodd" clip-rule="evenodd" d="M69.6508 2.69775C69.6508 2.69775 70.0446 2.86636 69.8195 3.20359C69.7633 3.31599 66.8377 7.53127 66.8377 7.53127C66.8377 7.53127 66.6127 7.75608 66.8377 8.0371C66.8377 8.0933 70.2134 12.702 70.2134 12.702C70.2134 12.702 70.5509 13.2078 70.0446 13.2078H66.2751C66.2751 13.2078 65.825 13.2078 65.4875 12.702C65.4312 12.5896 63.1808 8.82395 63.1808 8.82395C63.1808 8.82395 63.1808 8.76775 63.0683 8.82395V12.702C63.1245 12.702 63.1245 13.2078 62.6182 13.2078H59.6926C59.6926 13.2078 59.13 13.2078 59.13 12.702V3.20359C59.13 3.20359 59.13 2.69775 59.6926 2.69775H62.6182C62.6182 2.69775 63.1245 2.69775 63.1245 3.20359C63.1245 3.3722 63.0683 7.19405 63.0683 7.19405C63.0683 7.19405 63.1245 7.30645 63.1808 7.19405C63.1808 7.13784 63.9684 5.67655 63.9684 5.67655L65.4312 3.20359C65.4312 3.20359 65.7688 2.69775 66.2751 2.69775H69.6508Z" fill="white"/>
<path fill-rule="evenodd" clip-rule="evenodd" d="M74.8264 13.2078C74.8264 13.2078 75.389 13.2078 75.389 12.702V3.20359C75.389 3.20359 75.389 2.69775 74.8264 2.69775H71.7883C71.7883 2.69775 71.2257 2.69775 71.2257 3.20359V12.702C71.2257 12.702 71.2257 13.2078 71.7883 13.2078H74.8264Z" fill="white"/>
<path fill-rule="evenodd" clip-rule="evenodd" d="M77.4712 2.69775H81.9158C81.9158 2.69775 83.6036 2.69775 84.7851 3.31599C84.8976 3.31599 85.7977 3.82183 86.1916 4.72109C86.1916 4.77729 86.5291 5.45173 86.5291 6.35099C86.5291 6.40719 86.5291 7.19405 86.2478 7.69988C86.2478 7.81229 85.854 8.59914 84.4475 9.04877C84.4475 9.04877 84.2787 9.04877 84.3912 9.21738C84.3912 9.21738 84.8413 9.4984 85.0664 9.83562L87.148 12.702C87.148 12.702 87.5981 13.264 86.9792 13.2078H83.3223C83.3223 13.2078 82.7597 13.2078 82.5346 12.702C82.5346 12.5896 81.0156 9.89182 81.0156 9.89182H80.9031V12.702C80.9031 12.702 80.9031 13.2078 80.3405 13.2078H77.4149C77.4149 13.2078 76.8523 13.2078 76.8523 12.702V3.20359C76.8523 3.20359 76.8523 2.69775 77.4149 2.69775M80.9593 7.25025C80.9593 7.36266 81.1844 7.36266 81.1844 7.36266H81.3532C81.8595 7.36266 82.0845 7.25025 82.1408 7.25025C82.4221 7.13784 82.5346 6.91303 82.5346 6.91303C82.5909 6.74442 82.5909 6.4634 82.5909 6.4634C82.5909 6.18238 82.4221 5.95757 82.4221 5.95757C82.3096 5.78895 82.0283 5.67655 82.0283 5.67655C81.747 5.56414 81.1844 5.62034 81.0718 5.62034C80.9593 5.62034 80.9593 5.73275 80.9593 5.73275V7.30645V7.25025Z" fill="white"/>
<path fill-rule="evenodd" clip-rule="evenodd" d="M106.95 7.86849C105.094 5.05831 103.969 3.03498 103.969 3.03498C103.969 2.97877 103.856 2.86636 103.744 2.81016C103.631 2.75396 103.518 2.69775 103.406 2.69775C102.337 2.69775 101.324 2.69775 100.255 2.69775C99.749 2.69775 99.749 3.20359 99.749 3.20359V12.702C99.749 13.2078 100.255 13.2078 100.255 13.2078H103.125C103.631 13.2078 103.631 12.702 103.631 12.702V8.14951C103.631 8.14951 103.631 8.0371 103.8 8.14951C103.8 8.14951 106.444 12.1962 106.782 12.702C107.119 13.2078 107.569 13.2078 107.569 13.2078C108.751 11.1845 109.988 9.10497 111.17 7.08164C111.17 5.78895 111.057 4.49627 111.057 3.20359C111.057 2.69775 110.495 2.69775 110.495 2.69775H107.569C107.119 2.69775 107.119 3.20359 107.119 3.20359V7.86849C107.119 7.86849 107.119 7.92469 107.007 7.92469C107.007 7.92469 106.95 7.92469 106.894 7.86849H106.95Z" fill="white"/>
<path fill-rule="evenodd" clip-rule="evenodd" d="M15.0775 13.2078C15.0775 13.2078 14.5711 13.2078 14.7962 12.702C14.7962 12.5896 15.2463 11.5779 15.2463 11.5779L18.5656 3.20359C18.5656 3.20359 18.7907 2.69775 19.297 2.69775H21.66C21.66 2.69775 22.2789 2.69775 22.2226 3.20359C22.2226 3.31599 21.8288 4.27146 21.8288 4.27146L18.7907 12.702C18.7907 12.702 18.6219 13.2078 18.0593 13.2078H15.1337" fill="white"/>
<path fill-rule="evenodd" clip-rule="evenodd" d="M25.8233 12.7585C25.8233 12.7585 25.9921 13.2081 25.4858 13.2081C24.9794 13.2081 19.916 13.2081 19.916 13.2081C19.916 13.2081 19.4096 13.2081 19.5784 12.7585C19.7472 12.3088 22.3914 4.88996 22.3914 4.88996C22.3914 4.88996 22.6165 4.66514 22.8978 4.88996C22.8978 5.00236 25.7671 12.7585 25.7671 12.7585" fill="white"/>
<path fill-rule="evenodd" clip-rule="evenodd" d="M47.3722 13.2078C47.3722 13.2078 46.8658 13.2078 47.0909 12.702C47.0909 12.5896 47.5409 11.5779 47.5409 11.5779L50.8603 3.20359C50.8603 3.20359 51.0854 2.69775 51.5917 2.69775H53.9547C53.9547 2.69775 54.5735 2.69775 54.5173 3.20359C54.5173 3.31599 54.1234 4.27146 54.1234 4.27146L51.0854 12.702C51.0854 12.702 50.9166 13.2078 50.354 13.2078H47.4284" fill="white"/>
<path fill-rule="evenodd" clip-rule="evenodd" d="M58.1163 12.7585C58.1163 12.7585 58.2851 13.2081 57.7787 13.2081C57.2724 13.2081 52.2089 13.2081 52.2089 13.2081C52.2089 13.2081 51.7026 13.2081 51.8714 12.7585C52.0401 12.3088 54.6844 4.88996 54.6844 4.88996C54.6844 4.88996 54.9094 4.66514 55.1907 4.88996C55.1907 5.00236 58.06 12.7585 58.06 12.7585" fill="white"/>
<path fill-rule="evenodd" clip-rule="evenodd" d="M88.1037 13.2078C88.1037 13.2078 87.5974 13.2078 87.8224 12.702C87.8224 12.5896 88.2725 11.5779 88.2725 11.5779L91.5919 3.20359C91.5919 3.20359 91.8169 2.69775 92.3233 2.69775H94.6862C94.6862 2.69775 95.3051 2.69775 95.2488 3.20359C95.2488 3.31599 94.855 4.27146 94.855 4.27146L91.8169 12.702C91.8169 12.702 91.6481 13.2078 91.0855 13.2078H88.16" fill="white"/>
<path fill-rule="evenodd" clip-rule="evenodd" d="M98.8496 12.7585C98.8496 12.7585 99.0184 13.2081 98.512 13.2081C98.0057 13.2081 92.9422 13.2081 92.9422 13.2081C92.9422 13.2081 92.4359 13.2081 92.6046 12.7585C92.7734 12.3088 95.4177 4.88996 95.4177 4.88996C95.4177 4.88996 95.6427 4.66514 95.924 4.88996C95.924 5.00236 98.7933 12.7585 98.7933 12.7585" fill="white"/>
</svg>
